<?xml version="1.0" encoding="UTF-8"?>
<svg id="Camada_1" xmlns="http://www.w3.org/2000/svg" version="1.1" xmlns:xlink="http://www.w3.org/1999/xlink" viewBox="0 0 841.89 595.28">
  <!-- Generator: Adobe Illustrator 30.1.0, SVG Export Plug-In . SVG Version: 2.1.1 Build 136)  -->
  <defs>
    <style>
      .st0 {
        fill: #041747;
      }

      .st1 {
        fill: url(#Gradiente_sem_nome_5);
      }

      .st1, .st2, .st3, .st4 {
        fill-rule: evenodd;
      }

      .st2, .st3 {
        fill: #f8b11e;
      }

      .st3 {
        display: none;
      }

      .st4 {
        fill: #0f8c3b;
      }
    </style>
    <linearGradient id="Gradiente_sem_nome_5" data-name="Gradiente sem nome 5" x1="100.86" y1="380.92" x2="448.5" y2="380.92" gradientUnits="userSpaceOnUse">
      <stop offset=".19" stop-color="#0071fe"/>
      <stop offset=".78" stop-color="#003ffe"/>
    </linearGradient>
  </defs>
  <g>
    <path class="st0" d="M505.9,382.05v-94.27h-25.34v112.56h72.44v-18.3h-47.1ZM597.45,382.05v-94.27h-25.34v112.56h72.44v-18.3h-47.09ZM688.99,382.19v-31.32h42.98v-17.71h-42.98v-27.22h45.55v-18.15h-70.9v112.56h73.64v-18.15h-48.29Z"/>
    <path class="st0" d="M498.8,223.55v9.6h9.1v15.42c-.53.26-1.34.46-2.41.64-1.07.16-2.34.26-3.83.26-2.61,0-5.03-.47-7.25-1.38-2.2-.91-4.13-2.3-5.77-4.13-1.64-1.85-2.91-4.13-3.81-6.88-.9-2.75-1.37-5.94-1.38-9.59.01-3.81.52-7.11,1.5-9.9,1-2.79,2.38-5.08,4.17-6.9,1.77-1.81,3.87-3.16,6.26-4.03,2.41-.87,5-1.31,7.83-1.31,1.86,0,3.51.11,4.96.3,1.46.21,2.78.47,3.94.82,1.16.34,2.21.74,3.16,1.17l2.54-10.01c-1.01-.49-2.27-.94-3.76-1.34-1.48-.4-3.15-.7-5-.93-1.86-.23-3.86-.36-6-.36-3.64,0-7.08.45-10.32,1.35-3.24.9-6.21,2.24-8.88,4.02-2.68,1.78-5,3.99-6.96,6.62-1.96,2.64-3.46,5.69-4.53,9.15-1.07,3.46-1.61,7.33-1.63,11.59,0,3.35.34,6.5,1.01,9.47.67,2.97,1.63,5.67,2.9,8.12,1.27,2.45,2.82,4.57,4.62,6.36,2.65,2.61,5.82,4.55,9.51,5.82,3.69,1.26,7.93,1.88,12.72,1.88,2.4-.01,4.74-.18,7.01-.5,2.27-.32,4.35-.71,6.23-1.19,1.9-.46,3.47-.94,4.71-1.42v-32.73h-20.67ZM531.33,258.74h12.06v-25.59h4.1c1.9-.01,3.49.3,4.76.96,1.27.66,2.33,1.76,3.14,3.34.82,1.56,1.49,3.68,2.02,6.37.5,2.56.99,4.84,1.48,6.86.49,2.02.94,3.72,1.37,5.08.42,1.38.79,2.36,1.09,2.98h12.47c-.32-.62-.64-1.5-1-2.66-.36-1.18-.72-2.56-1.12-4.13-.4-1.57-.81-3.25-1.23-5.06-.44-1.82-.87-3.66-1.33-5.54-.71-3.21-1.74-5.85-3.08-7.94-1.33-2.09-3.09-3.57-5.29-4.44v-.25c1.49-.57,2.88-1.35,4.19-2.34,1.3-.97,2.45-2.13,3.44-3.47,1-1.33,1.78-2.83,2.34-4.49.56-1.65.85-3.44.86-5.37-.01-2.8-.42-5.21-1.23-7.19-.8-2-1.87-3.63-3.23-4.96-1.37-1.31-2.89-2.35-4.58-3.13-1.68-.77-3.43-1.34-5.22-1.72-1.8-.37-3.54-.62-5.23-.72-1.68-.11-3.2-.16-4.54-.15-2.06,0-4.06.06-6.01.18-1.96.11-3.79.27-5.52.47-1.73.19-3.3.42-4.7.67v62.25h0ZM543.39,204.93c.5-.16,1.2-.29,2.15-.37.93-.08,2.08-.12,3.43-.12,1.13-.01,2.29.11,3.51.37,1.2.26,2.34.74,3.4,1.42,1.05.7,1.91,1.67,2.57,2.95.66,1.27,1,2.91,1.01,4.93-.01,2.01-.45,3.76-1.34,5.25-.89,1.51-2.15,2.67-3.8,3.5-1.65.82-3.62,1.25-5.93,1.26h-5.01v-19.19h0ZM615.69,195.67v38.08c-.01,3.73-.44,6.77-1.28,9.1-.85,2.34-2.06,4.06-3.64,5.16-1.57,1.09-3.46,1.64-5.66,1.63-2.09.01-3.91-.55-5.46-1.67-1.56-1.11-2.78-2.84-3.64-5.18-.86-2.35-1.3-5.36-1.31-9.04v-38.08h-12.14v37.02c.01,6.17.89,11.24,2.61,15.22,1.72,3.98,4.24,6.94,7.55,8.87,3.31,1.93,7.33,2.89,12.07,2.87,4.78,0,8.89-.97,12.32-2.91,3.43-1.95,6.08-4.93,7.93-8.93,1.85-4,2.79-9.06,2.8-15.2v-36.94h-12.14ZM653.06,258.74v-23.62c.61.12,1.29.21,2.02.26.75.04,1.55.07,2.41.07,1.59,0,3.27-.11,5.05-.37,1.78-.24,3.56-.67,5.33-1.27,1.79-.6,3.48-1.42,5.1-2.45,1.61-1.04,3.05-2.34,4.31-3.9,1.26-1.56,2.24-3.43,2.98-5.6.72-2.17,1.09-4.7,1.11-7.57,0-1.95-.24-3.8-.74-5.54-.48-1.73-1.17-3.34-2.08-4.79-.9-1.45-1.99-2.72-3.25-3.79-2.01-1.72-4.51-2.98-7.51-3.8-2.99-.81-6.48-1.21-10.46-1.2-3.49.01-6.59.14-9.3.38-2.72.24-5.06.55-7.03.93v62.25h12.06ZM653.06,205.1c.53-.14,1.23-.24,2.1-.34.86-.1,1.91-.15,3.14-.15,2.26,0,4.2.38,5.84,1.16,1.64.78,2.91,1.91,3.8,3.44.89,1.52,1.34,3.41,1.35,5.65,0,2.28-.48,4.24-1.42,5.89-.94,1.65-2.31,2.92-4.09,3.83-1.79.89-3.94,1.34-6.47,1.35-.89,0-1.68-.03-2.38-.07-.7-.06-1.33-.14-1.89-.26v-20.51h0ZM715.03,194.68c-3.31.01-6.34.55-9.13,1.59-2.78,1.05-5.26,2.56-7.46,4.5-2.19,1.95-4.05,4.26-5.59,6.97-1.53,2.71-2.69,5.71-3.5,9.02-.81,3.31-1.21,6.86-1.21,10.65s.37,7.14,1.12,10.38c.74,3.24,1.82,6.2,3.27,8.87,1.44,2.67,3.21,4.97,5.32,6.9,2.11,1.94,4.54,3.43,7.27,4.48,2.73,1.05,5.77,1.59,9.1,1.6,3.94,0,7.53-.7,10.8-2.11,3.27-1.39,6.09-3.49,8.49-6.26,2.39-2.77,4.24-6.24,5.55-10.39,1.3-4.14,1.97-8.97,1.99-14.47,0-3.38-.34-6.63-1.03-9.76-.68-3.13-1.72-6.01-3.09-8.68-1.38-2.65-3.1-4.99-5.18-6.97-2.08-1.98-4.51-3.54-7.29-4.65-2.79-1.11-5.92-1.67-9.42-1.68h0ZM714.7,204.6c1.86.02,3.51.41,4.98,1.2,1.46.8,2.74,1.9,3.83,3.32,1.08,1.41,1.98,3.06,2.69,4.93.71,1.87,1.25,3.91,1.6,6.08.34,2.19.52,4.44.52,6.77,0,3.2-.29,6.18-.87,8.93-.57,2.75-1.43,5.17-2.58,7.25-1.15,2.08-2.58,3.69-4.29,4.85-1.71,1.16-3.69,1.76-5.95,1.78-2.24-.01-4.21-.61-5.92-1.78-1.72-1.17-3.16-2.79-4.32-4.85-1.18-2.06-2.05-4.46-2.64-7.18-.6-2.72-.9-5.63-.9-8.75,0-2.33.18-4.59.53-6.8.34-2.19.89-4.24,1.6-6.14.73-1.91,1.64-3.58,2.74-5.02,1.11-1.43,2.4-2.57,3.9-3.38,1.5-.81,3.2-1.21,5.1-1.23Z"/>
  </g>
  <g>
    <g>
      <path class="st3" d="M309.39,180.72l-149.43,74.95-2.32,1.16s-.02,0-.03,0c-.45.12-1.2.35-2.05.27l-35.15-17.63h-.02s18.14-9.11,18.14-9.11l131-65.71,1.19-.69c.22-.13.45-.24.68-.33.19-.08.38-.15.57-.2.48-.13,1.29-.38,2.2-.26.14.01.27.04.41.08.04.01.07.02.09.03.3.13.78.35,1.35.64.67.33,1.02.53,1.74.91.4.21.99.52,1.72.87l29.9,15Z"/>
      <polygon class="st3" points="178.98 268.86 332.05 192.09 367.97 210.1 214.9 286.88 178.98 268.86"/>
      <polygon class="st3" points="237.55 298.24 390.62 221.46 426.54 239.48 273.47 316.26 237.55 298.24"/>
      <path class="st2" d="M192.15,271.17c-12.55-5.56-18.7-7.88-18.23-9.67.09-.34.38-.64.89-.88l156.02-73.72c3.72-1.76,16.32.81,27.79,5.62,11.24,4.71,17.35,9.88,13.76,11.58-51.15,24.21-102.29,48.43-153.44,72.64-1.15.33-2.86.73-4.97.92-6.61.57-10.86-1.61-21.82-6.47Z"/>
      <path class="st2" d="M128.99,239.78c-12.55-5.56-18.7-7.88-18.23-9.67.09-.34.38-.64.89-.88l156.02-73.72c3.72-1.76,16.32.81,27.79,5.62,11.24,4.71,17.35,9.88,13.76,11.58-51.15,24.21-102.29,48.43-153.44,72.64-1.15.33-2.86.73-4.97.92-6.61.57-10.86-1.61-21.82-6.47Z"/>
      <path class="st2" d="M254.13,302.94c-12.55-5.56-18.7-7.88-18.23-9.67.09-.34.38-.64.89-.88l156.02-73.72c3.72-1.76,16.32.81,27.79,5.62,11.24,4.71,17.35,9.88,13.76,11.58-51.15,24.21-102.29,48.43-153.44,72.64-1.15.33-2.86.73-4.97.92-6.61.57-10.86-1.61-21.82-6.47Z"/>
    </g>
    <path class="st1" d="M448.11,337.35c.28,1.46.5,3.38.34,5.62-.11,1.55-.37,2.9-.67,4.01-.28.92-.82,2.3-1.88,3.73-1.03,1.4-2.16,2.3-2.95,2.84-3.75,2.07-7.49,4.14-11.24,6.22l-155.13,80.55-53.07-25.69-104.73-50.7-9.11-4.6c-3-1.51-5.32-3.86-6.82-6.62-2.44-4.48-2.72-10.04-.27-14.9l.06-.12,2-3.97c3.33-6.59,10.67-9.9,17.6-8.46l29.97,14.51,123.81,59.94,31.15-16.17,114.73-59.58,2.17-1c8-3.69,17.57-.16,21.26,7.84l1.92,4.16c.07.15.14.3.2.46.28.67.5,1.31.68,1.92Z"/>
    <path class="st4" d="M444.05,275.13c.27,1.42.49,3.3.33,5.5-.11,1.51-.37,2.83-.66,3.92-.28.9-.8,2.25-1.84,3.65-1.01,1.37-2.11,2.25-2.89,2.78-3.66,2.03-7.33,4.05-10.99,6.08l-151.67,78.76-51.89-25.12-102.4-49.57-8.91-4.49c-2.94-1.48-5.21-3.77-6.67-6.47-2.38-4.38-2.66-9.81-.26-14.57l.06-.12,1.96-3.88c3.25-6.45,10.44-9.68,17.21-8.27l29.3,14.18,121.05,58.6,30.45-15.81,112.17-58.25,2.12-.98c7.83-3.61,17.18-.16,20.78,7.67l1.87,4.06c.07.15.13.3.2.45.27.65.49,1.28.66,1.88Z"/>
  </g>
</svg>